<?xml version="1.0" encoding="utf-8"?>
<!-- Generator: Adobe Illustrator 19.2.1, SVG Export Plug-In . SVG Version: 6.00 Build 0)  -->
<svg version="1.1" id="Layer_1" xmlns="http://www.w3.org/2000/svg" xmlns:xlink="http://www.w3.org/1999/xlink" x="0px" y="0px"
	 viewBox="0 0 150 150" style="enable-background:new 0 0 150 150;" xml:space="preserve">
<style type="text/css">
	.st0{fill:none;stroke:#666666;stroke-miterlimit:10;}
	.st1{fill:#666666;}
</style>
<ellipse class="st0" cx="75" cy="75" rx="63.4" ry="64"/>
<g>
	<g>
		<g>
			<path class="st1" d="M67.8,105.1c-0.7,0-1.2-0.6-1.2-1.3c0-0.7,0.6-1.3,1.2-1.3h14.5c0.7,0,1.2,0.6,1.2,1.3
				c0,0.7-0.6,1.3-1.2,1.3H67.8z"/>
			<path class="st1" d="M69.4,110c-0.7,0-1.2-0.6-1.2-1.3c0-0.7,0.6-1.3,1.2-1.3h11.3c0.7,0,1.2,0.6,1.2,1.3c0,0.7-0.6,1.3-1.2,1.3
				H69.4z"/>
			<path class="st1" d="M73.8,92.8c0,0.7-0.6,1.2-1.2,1.2c-0.7,0-1.2-0.6-1.2-1.2c0-5.3-0.2-9.2-0.9-12.8c-0.7-3.6-2-6.9-4.3-11
				c-0.3-0.6-0.1-1.4,0.5-1.7c0.6-0.3,1.4-0.1,1.7,0.5c2.4,4.4,3.8,7.9,4.5,11.8C73.7,83.2,73.8,87.3,73.8,92.8z"/>
			<path class="st1" d="M78.7,92.8c0,0.7-0.6,1.2-1.2,1.2c-0.7,0-1.2-0.6-1.2-1.2c0-5.4,0.2-9.5,0.9-13.3c0.8-3.8,2.1-7.4,4.5-11.8
				c0.3-0.6,1.1-0.8,1.7-0.5c0.6,0.3,0.8,1.1,0.5,1.7c-2.3,4.1-3.6,7.5-4.3,11C78.8,83.6,78.7,87.5,78.7,92.8z"/>
			<path class="st1" d="M66.9,69.5c-0.7-0.2-1-0.9-0.8-1.6c0.2-0.7,0.9-1,1.6-0.8c0.9,0.3,1.6,0.7,2.3,1l0.1,0c1.1,0.5,2,1,2.6,0.4
				l1.5-1.3c0.5-0.4,1.3-0.4,1.7,0.2c0.4,0.5,0.4,1.3-0.2,1.8l-1.5,1.3c-1.9,1.6-3.5,0.8-5.3-0.1l-0.1,0
				C68.2,70,67.6,69.7,66.9,69.5z"/>
			<path class="st1" d="M76.2,41.1c0,0.7-0.6,1.3-1.2,1.3c-0.7,0-1.2-0.6-1.2-1.3v-4.8c0-0.7,0.6-1.3,1.2-1.3c0.7,0,1.2,0.6,1.2,1.3
				V41.1z"/>
			<path class="st1" d="M82.3,67.1c0.7-0.2,1.4,0.2,1.6,0.8c0.2,0.7-0.1,1.4-0.8,1.6c-0.7,0.2-1.3,0.6-1.9,0.9l-0.1,0
				c-1.9,0.9-3.4,1.7-5.3,0.1l-1.5-1.3c-0.5-0.4-0.6-1.2-0.2-1.8c0.4-0.5,1.2-0.6,1.7-0.2l1.5,1.3c0.7,0.5,1.6,0.1,2.7-0.4l0.1,0
				C80.7,67.7,81.5,67.4,82.3,67.1z"/>
			<path class="st1" d="M90.7,54.4c4,4,6.5,9.6,6.5,15.7c0,2.4-0.4,4.7-1.1,6.9c-0.7,2.3-1.8,4.3-3.2,6.2c-2.3,3.1-4.1,5.2-5.6,6.8
				c-2.6,2.9-3.7,4.1-3.7,8.3c0,0.7-0.6,1.3-1.2,1.3h0h-7.3h-7.3c-0.7,0-1.2-0.6-1.2-1.3c0-4.2-1.2-5.4-3.7-8.3h0h0
				c-1.5-1.6-3.3-3.7-5.7-6.9c-1.4-1.9-2.4-4-3.2-6.2c-0.7-2.2-1.1-4.5-1.1-6.9c0-3,0.6-5.9,1.7-8.5l0,0c1.1-2.7,2.8-5.1,4.8-7.2
				c2-2,4.5-3.7,7.2-4.8l0,0c2.6-1.1,5.5-1.7,8.5-1.7c3,0,5.8,0.6,8.5,1.7C86.2,50.7,88.6,52.4,90.7,54.4L90.7,54.4z M94.7,70.2
				c0-5.4-2.2-10.4-5.8-14c-1.8-1.8-4-3.3-6.4-4.3c-2.3-1-4.8-1.5-7.5-1.5c-2.7,0-5.2,0.5-7.5,1.5v0l0,0c-2.4,1-4.6,2.5-6.4,4.3
				c-1.8,1.8-3.3,4-4.2,6.3l0,0.1c-1,2.3-1.5,4.9-1.5,7.5c0,2.1,0.3,4.2,1,6.1c0.7,2,1.6,3.9,2.8,5.5c2.2,3.1,4.1,5.1,5.5,6.7l0,0
				c2.8,3,4.1,4.6,4.4,8.7h6.1h6.1c0.2-4.2,1.6-5.7,4.3-8.8c1.4-1.5,3.2-3.5,5.4-6.6c1.2-1.7,2.2-3.5,2.8-5.5
				C94.3,74.4,94.7,72.3,94.7,70.2z"/>
			<path class="st1" d="M71,115c-0.7,0-1.2-0.6-1.2-1.3s0.6-1.3,1.2-1.3h8c0.7,0,1.2,0.6,1.2,1.3S79.7,115,79,115H71z"/>
			<path class="st1" d="M90.3,45.5c-0.3,0.6-1.1,0.8-1.7,0.5c-0.6-0.3-0.8-1.1-0.5-1.7l2.4-4.2c0.3-0.6,1.1-0.8,1.7-0.5
				c0.6,0.3,0.8,1.1,0.5,1.7L90.3,45.5z"/>
			<path class="st1" d="M61.9,44.3c0.3,0.6,0.1,1.4-0.5,1.7c-0.6,0.3-1.4,0.1-1.7-0.5l-2.4-4.2c-0.3-0.6-0.1-1.4,0.5-1.7
				c0.6-0.3,1.4-0.1,1.7,0.5L61.9,44.3z"/>
			<path class="st1" d="M51,54.3c0.6,0.3,0.8,1.1,0.5,1.7c-0.3,0.6-1.1,0.8-1.7,0.5L45.6,54c-0.6-0.3-0.8-1.1-0.5-1.7
				c0.3-0.6,1.1-0.8,1.7-0.5L51,54.3z"/>
			<path class="st1" d="M100.2,56.4c-0.6,0.3-1.4,0.1-1.7-0.5c-0.3-0.6-0.1-1.4,0.5-1.7l4.2-2.4c0.6-0.3,1.4-0.1,1.7,0.5
				c0.3,0.6,0.1,1.4-0.5,1.7L100.2,56.4z"/>
			<path class="st1" d="M62.1,75.1c0.3,0.6,0,1.4-0.7,1.6c-0.6,0.3-1.4,0-1.6-0.7c-0.4-1-0.8-2.1-1-3.2c-0.2-1.1-0.3-2.2-0.3-3.3
				c0-0.7,0.6-1.3,1.2-1.3c0.7,0,1.2,0.6,1.2,1.3c0,1,0.1,1.9,0.3,2.8C61.4,73.3,61.7,74.2,62.1,75.1L62.1,75.1z M62.1,64.1
				c-0.3,0.6-1,0.9-1.6,0.7c-0.6-0.3-0.9-1-0.7-1.6c0.4-1,0.9-1.9,1.5-2.8h0l0,0c0.6-0.9,1.3-1.7,2-2.5c0.7-0.7,1.6-1.4,2.5-2v0
				c0.9-0.6,1.8-1.1,2.8-1.5c1-0.4,2.1-0.8,3.1-1c1.1-0.2,2.2-0.3,3.3-0.3c0.7,0,1.2,0.6,1.2,1.3c0,0.7-0.6,1.3-1.2,1.3
				c-1,0-1.9,0.1-2.8,0.3c-0.9,0.2-1.8,0.5-2.7,0.8c-0.8,0.4-1.6,0.8-2.4,1.3l0,0h0c-0.7,0.5-1.4,1.1-2.1,1.7
				c-0.6,0.6-1.2,1.4-1.7,2.1l0,0C62.9,62.5,62.4,63.3,62.1,64.1z"/>
		</g>
	</g>
</g>
</svg>
