<?xml version="1.0" encoding="utf-8"?>
<!-- Generator: Adobe Illustrator 19.2.1, SVG Export Plug-In . SVG Version: 6.00 Build 0)  -->
<svg version="1.1" id="Layer_1" xmlns="http://www.w3.org/2000/svg" xmlns:xlink="http://www.w3.org/1999/xlink" x="0px" y="0px"
	 viewBox="0 0 150 150" style="enable-background:new 0 0 150 150;" xml:space="preserve">
<style type="text/css">
	.st0{fill:none;stroke:#666666;stroke-miterlimit:10;}
	.st1{fill:#676767;}
	.st2{fill:#989898;}
	.st3{fill:#231F20;}
	.st4{fill:#FFFFFF;}
	.st5{opacity:5.000000e-002;}
	.st6{opacity:5.000000e-002;fill:#FFFFFF;}
</style>
<ellipse class="st0" cx="75" cy="75" rx="63.4" ry="64"/>
<g>
	<polygon class="st1" points="99.4,104.8 75,112.1 50.6,104.8 45,37.1 105,37.1 	"/>
	<polygon class="st2" points="75,42.6 75,106.3 75.1,106.3 94.8,100.4 99.3,42.6 	"/>
	<g>
		<path class="st3" d="M87.2,27.1"/>
	</g>
	<g>
		<polygon class="st4" points="75,59.5 57.5,67.6 58.1,75.6 75,67.6 92.9,59 93.7,50.9 		"/>
		<polygon class="st4" points="57.5,67.6 58.1,75.6 75,67.6 75,59.5 		"/>
		<polygon class="st4" points="93.7,50.9 75,59.5 75,67.6 92.9,59 		"/>
		<polygon class="st4" points="57.6,67.6 58.1,75.6 84,75.7 83.4,86.3 74.9,89 66.7,86.7 66.2,80.1 58.6,80.1 59.6,92.9 75,97.9 
			90.3,93 92.3,67.6 		"/>
		<g class="st5">
			<polygon class="st4" points="75,67.6 57.5,67.6 58.1,75.6 75,75.6 			"/>
			<polygon class="st4" points="75,89 74.9,89 66.7,86.7 66.2,80.1 58.6,80.1 59.6,92.9 75,97.9 			"/>
		</g>
		<polygon class="st4" points="56,50.9 93.7,50.9 92.9,59 56.9,59 		"/>
		<polygon class="st6" points="75,50.9 56,50.9 56.9,59 75,59 		"/>
	</g>
</g>
</svg>
