<?xml version="1.0" encoding="utf-8"?>
<!-- Generator: Adobe Illustrator 19.2.1, SVG Export Plug-In . SVG Version: 6.00 Build 0)  -->
<svg version="1.1" id="Layer_1" xmlns="http://www.w3.org/2000/svg" xmlns:xlink="http://www.w3.org/1999/xlink" x="0px" y="0px"
	 viewBox="0 0 150 150" style="enable-background:new 0 0 150 150;" xml:space="preserve">
<style type="text/css">
	.st0{fill:none;stroke:#666666;stroke-miterlimit:10;}
	.st1{fill:#666666;}
	.st2{fill:#999999;}
	.st3{fill:#FFFFFF;}
</style>
<ellipse class="st0" cx="75" cy="75" rx="63.4" ry="64"/>
<g>
	<path class="st1" d="M75,112.5L50.5,105L45,37.5h60L99.5,105L75,112.5z M75,112.5"/>
	<path class="st2" d="M94.9,100.7L99.5,43H75v63.7L94.9,100.7z M94.9,100.7"/>
	<path class="st3" d="M75,76.3v-8.3h-9.9l-0.7-8.5H75v-8.3h0H56.2l0.2,2.2l1.8,22.8H75z M75,76.3"/>
	<path class="st3" d="M75,89.6L75,89.6l-8.4-2.5l-0.5-6.6H62h-3.5l1.1,13L75,98.2l0,0V89.6z M75,89.6"/>
	<path class="st3" d="M92.4,68.1h-2H75v8.3h9.3l-0.9,10.7L75,89.6v8.6l15.4-4.7l0.1-1.4l1.8-21.8L92.4,68.1z M92.4,68.1"/>
	<path class="st3" d="M93.8,51.3H75v5.1v3.1v0h18.1l0,0h0l0.1-1.9l0.3-4.2L93.8,51.3z M93.8,51.3"/>
</g>
</svg>
