<?xml version="1.0" encoding="utf-8"?>
<!-- Generator: Adobe Illustrator 19.2.1, SVG Export Plug-In . SVG Version: 6.00 Build 0)  -->
<svg version="1.1" id="Layer_1" xmlns="http://www.w3.org/2000/svg" xmlns:xlink="http://www.w3.org/1999/xlink" x="0px" y="0px"
	 viewBox="0 0 150 150" style="enable-background:new 0 0 150 150;" xml:space="preserve">
<style type="text/css">
	.st0{fill:none;stroke:#666666;stroke-miterlimit:10;}
	.st1{opacity:0.95;fill:#666666;}
	.st2{fill:#999999;}
	.st3{opacity:0.1;}
	.st4{fill:#FFFFFF;}
</style>
<ellipse class="st0" cx="75" cy="75" rx="63.4" ry="64"/>
<g>
	<rect x="40.5" y="40.9" class="st1" width="69.2" height="68.7"/>
	<g>
		
			<image style="overflow:visible;opacity:0.4;" width="346" height="346" xlink:href="57AB767E.png"  transform="matrix(0.24 0 0 0.24 33.5239 34.8491)">
		</image>
		<g>
			<g>
				<path class="st2" d="M37.5,37.5v75h75v-75H37.5z M106.5,106.6H43.6v-63h62.9V106.6z"/>
			</g>
		</g>
	</g>
	<g>
		<g class="st3">
			<path d="M64.8,82.7l-2.7,9h-5.8l9.9-31.7h7.2l10.1,31.7h-6.1l-2.8-9H64.8z M73.7,78.3l-2.4-7.8c-0.6-1.9-1.1-4.1-1.6-5.9h-0.1
				c-0.5,1.8-0.9,4-1.5,5.9l-2.4,7.8H73.7z"/>
		</g>
		<g>
			<path class="st4" d="M64.8,81.4l-2.7,9h-5.8l9.9-31.7h7.2l10.1,31.7h-6.1l-2.8-9H64.8z M73.7,77l-2.4-7.8
				c-0.6-1.9-1.1-4.1-1.6-5.9h-0.1c-0.5,1.8-0.9,4-1.5,5.9L65.7,77H73.7z"/>
		</g>
	</g>
	<g>
		<g class="st3">
			<path d="M91.8,62.4c0,1.7-1.2,3.1-3.2,3.1c-1.9,0-3.1-1.4-3.1-3.1c0-1.8,1.3-3.2,3.2-3.2C90.5,59.2,91.7,60.6,91.8,62.4z
				 M85.8,91.7V68.8h5.7v22.9H85.8z"/>
		</g>
		<g>
			<path class="st4" d="M91.8,61c0,1.7-1.2,3.1-3.2,3.1c-1.9,0-3.1-1.4-3.1-3.1c0-1.8,1.3-3.2,3.2-3.2C90.5,57.9,91.7,59.2,91.8,61z
				 M85.8,90.4V67.4h5.7v22.9H85.8z"/>
		</g>
	</g>
</g>
</svg>
