<?xml version="1.0" encoding="utf-8"?>
<!-- Generator: Adobe Illustrator 19.2.1, SVG Export Plug-In . SVG Version: 6.00 Build 0)  -->
<svg version="1.1" id="Layer_1" xmlns="http://www.w3.org/2000/svg" xmlns:xlink="http://www.w3.org/1999/xlink" x="0px" y="0px"
	 viewBox="0 0 150 150" style="enable-background:new 0 0 150 150;" xml:space="preserve">
<style type="text/css">
	.st0{fill:none;stroke:#666666;stroke-miterlimit:10;}
	.st1{fill:#676767;}
	.st2{fill:#989898;}
	.st3{fill:#FFFFFF;}
</style>
<ellipse class="st0" cx="75" cy="75" rx="63.4" ry="64"/>
<g>
	<polygon class="st1" points="105,37.5 75,37.5 75,37.5 45,37.5 50.6,104.9 75,112.5 75,112.5 75,112.5 75,112.5 75,112.5 
		99.4,104.9 	"/>
	<polygon class="st2" points="75,43 75,106.8 75,106.8 94.7,100.6 99.5,43 	"/>
	<polygon class="st3" points="90.7,51.3 60.3,51.3 58.2,76.5 58.3,76.3 84.1,76.3 83.2,87 75,89.6 66.6,86.9 66.1,80.5 58.6,80.5 
		59.6,93.4 75,98.2 90.4,93.4 92.5,68.1 65.1,68.1 65.4,59.6 84.4,59.6 84.7,64.5 92.4,64.5 	"/>
	<g>
		<path class="st3" d="M75,51.3H60.3l-2.1,25.2l0-0.2H75v-8.2h-8.8l0.3-8.4H75V51.3z M66.1,80.5h-7.6l1.1,12.9L75,98.2v-8.6
			l-8.4-2.7L66.1,80.5z"/>
	</g>
</g>
</svg>
