<?xml version="1.0" encoding="utf-8"?>
<!-- Generator: Adobe Illustrator 19.2.1, SVG Export Plug-In . SVG Version: 6.00 Build 0)  -->
<svg version="1.1" id="Capa_1" xmlns="http://www.w3.org/2000/svg" xmlns:xlink="http://www.w3.org/1999/xlink" x="0px" y="0px"
	 viewBox="0 0 736.6 736.6" style="enable-background:new 0 0 736.6 736.6;" xml:space="preserve">
<style type="text/css">
	.st0{fill:#666666;}
	.st1{fill:none;stroke:#F6F6F6;stroke-width:2;stroke-miterlimit:10;}
	.st2{fill:none;stroke:#F6F6F6;stroke-miterlimit:10;}
	.st3{fill:#F6F6F6;}
	.st4{font-family:'Arkhip';}
	.st5{font-size:89.244px;}
	.st6{font-size:33.1428px;}
	.st7{font-size:85.5256px;}
</style>
<g>
	<g>
		<g>
			<g>
				<path class="st0" d="M368.8,0c-129,0-233.1,103-233.1,231.9c0,127.9,231.9,504.6,231.9,504.6s233.1-376.8,233.1-504.6
					C600.8,103,496.7,0,368.8,0z"/>
			</g>
		</g>
	</g>
</g>
<rect x="214.3" y="99.1" transform="matrix(0.7078 -0.7064 0.7064 0.7078 -71.4039 334.6398)" class="st1" width="309" height="309"/>
<line class="st2" x1="275.9" y1="346.6" x2="461.7" y2="160.8"/>
<line class="st2" x1="275.9" y1="160.8" x2="461.7" y2="346.6"/>
<text transform="matrix(1 0 0 1 260.8457 278.9029)" class="st3 st4 st5">c</text>
<text transform="matrix(1 0 0 1 415.165 278.7467)" class="st3 st4 st5">c</text>
<text transform="matrix(0.9892 0 0 1 329.8828 352.3501)" class="st3 st4 st6">1995</text>
<text transform="matrix(1 0 0 1 341.5488 195.7818)" class="st3 st4 st7">b</text>
</svg>
