<?xml version="1.0" encoding="utf-8"?>
<!-- Generator: Adobe Illustrator 19.2.1, SVG Export Plug-In . SVG Version: 6.00 Build 0)  -->
<svg version="1.1" id="Layer_1" xmlns="http://www.w3.org/2000/svg" xmlns:xlink="http://www.w3.org/1999/xlink" x="0px" y="0px"
	 viewBox="0 0 150 150" style="enable-background:new 0 0 150 150;" xml:space="preserve">
<style type="text/css">
	.st0{fill:none;stroke:#666666;stroke-miterlimit:10;}
	.st1{fill:#666666;}
</style>
<ellipse class="st0" cx="75" cy="75" rx="63.4" ry="64"/>
<g>
	<path class="st1" d="M92.8,30H57.2c-4,0-7.2,3.3-7.2,7.5v75.1c0,2,0.8,3.9,2.1,5.3c1.4,1.4,3.2,2.2,5.1,2.2h35.6
		c4,0,7.2-3.3,7.2-7.5V37.5C100,33.3,96.8,30,92.8,30z M51.5,38.2h47v9.6h-8.9c-0.4,0-0.7,0.3-0.7,0.8c0,0.4,0.3,0.8,0.7,0.8h8.9
		v46.5H75.6c-0.4,0-0.7,0.3-0.7,0.8c0,0.4,0.3,0.8,0.7,0.8h22.9v4.4h-47V38.2z M57.2,31.5h35.6c2.9,0,5.3,2.2,5.7,5.1H51.5
		C51.9,33.8,54.3,31.5,57.2,31.5z M92.8,118.5H57.2c-1.5,0-3-0.6-4-1.7c-1.1-1.1-1.7-2.6-1.7-4.2v-3.2h12.6c0.4,0,0.7-0.3,0.7-0.8
		c0-0.4-0.3-0.8-0.7-0.8H51.5v-4.4h47v9.2C98.5,115.8,95.9,118.5,92.8,118.5z"/>
	<path class="st1" d="M75,106.3c-2.3,0-4.2,1.9-4.2,4.3c0,2.4,1.9,4.3,4.2,4.3c2.3,0,4.2-1.9,4.2-4.3
		C79.2,108.3,77.3,106.3,75,106.3z M75,113.4c-1.5,0-2.7-1.2-2.7-2.7c0-1.5,1.2-2.7,2.7-2.7s2.7,1.2,2.7,2.7
		C77.7,112.1,76.5,113.4,75,113.4z"/>
	<path class="st1" d="M56.5,50.1c0.2,0,0.4-0.1,0.5-0.2l5.8-6c0.3-0.3,0.3-0.8,0-1.1c-0.3-0.3-0.8-0.3-1.1,0l-5.8,6
		c-0.3,0.3-0.3,0.8,0,1.1C56.1,50,56.3,50.1,56.5,50.1z"/>
	<path class="st1" d="M56.5,58c0.2,0,0.4-0.1,0.5-0.2l13.4-13.9c0.3-0.3,0.3-0.8,0-1.1c-0.3-0.3-0.8-0.3-1.1,0L56,56.7
		c-0.3,0.3-0.3,0.8,0,1.1C56.1,57.9,56.3,58,56.5,58z"/>
	<path class="st1" d="M78.2,42.8c-0.3-0.3-0.8-0.3-1.1,0L56,64.6c-0.3,0.3-0.3,0.8,0,1.1c0.1,0.2,0.3,0.2,0.5,0.2s0.4-0.1,0.5-0.2
		l21.1-21.8C78.5,43.6,78.5,43.1,78.2,42.8z"/>
	<path class="st1" d="M71.5,95.9h-9.1c-0.4,0-0.7,0.3-0.7,0.8c0,0.4,0.3,0.8,0.7,0.8h9.1c0.4,0,0.7-0.3,0.7-0.8
		C72.2,96.2,71.9,95.9,71.5,95.9z"/>
</g>
</svg>
