<?xml version="1.0" encoding="utf-8"?>
<!-- Generator: Adobe Illustrator 19.2.1, SVG Export Plug-In . SVG Version: 6.00 Build 0)  -->
<svg version="1.1" id="Layer_1" xmlns="http://www.w3.org/2000/svg" xmlns:xlink="http://www.w3.org/1999/xlink" x="0px" y="0px"
	 viewBox="0 0 150 150" style="enable-background:new 0 0 150 150;" xml:space="preserve">
<style type="text/css">
	.st0{fill:none;stroke:#666666;stroke-miterlimit:10;}
</style>
<ellipse class="st0" cx="75" cy="75" rx="63.4" ry="64"/>
<g>
	<path class="st0" d="M43.8,49.4c0.2,0,0.4-0.1,0.5-0.2l5.6-5.6c0.3-0.3,0.3-0.7,0-1c-0.3-0.3-0.7-0.3-1,0l-5.6,5.6
		c-0.3,0.3-0.3,0.7,0,1C43.4,49.3,43.6,49.4,43.8,49.4z"/>
	<path class="st0" d="M43.8,56.8c0.2,0,0.4-0.1,0.5-0.2l12.9-12.9c0.3-0.3,0.3-0.7,0-1c-0.3-0.3-0.7-0.3-1,0L43.3,55.6
		c-0.3,0.3-0.3,0.7,0,1C43.4,56.7,43.6,56.8,43.8,56.8z"/>
	<path class="st0" d="M63.6,42.7L43.3,62.9c-0.3,0.3-0.3,0.7,0,1c0.1,0.1,0.3,0.2,0.5,0.2s0.4-0.1,0.5-0.2l20.3-20.3
		c0.3-0.3,0.3-0.7,0-1C64.3,42.4,63.9,42.4,63.6,42.7z"/>
	<path class="st0" d="M88.4,74.6h-8.3c-0.4,0-0.7,0.3-0.7,0.7c0,0.4,0.3,0.7,0.7,0.7h8.3c0.4,0,0.7-0.3,0.7-0.7
		C89.1,74.9,88.8,74.6,88.4,74.6z"/>
	<path class="st0" d="M75,82c-2.2,0-3.9,1.8-3.9,3.9c0,2.2,1.8,3.9,3.9,3.9c2.2,0,3.9-1.8,3.9-3.9C78.9,83.7,77.2,82,75,82z
		 M75,88.4c-1.4,0-2.5-1.1-2.5-2.5c0-1.4,1.1-2.5,2.5-2.5c1.4,0,2.5,1.1,2.5,2.5C77.5,87.3,76.4,88.4,75,88.4z"/>
	<path class="st0" d="M109.5,35h-69c-3,0-5.5,2.5-5.5,5.5V90c0,3,2.5,5.5,5.5,5.5h24.3l-2.9,11.3h-0.3c-2.3,0-4.2,1.9-4.2,4.2v3.2
		c0,0.4,0.3,0.7,0.7,0.7h34c0.4,0,0.7-0.3,0.7-0.7v-3.2c0-2.3-1.9-4.2-4.2-4.2h-0.3l-2.9-11.3h24.3c3,0,5.5-2.5,5.5-5.5V40.5
		C115,37.5,112.5,35,109.5,35z M36.4,41h77.2v33.6H91.4c-0.4,0-0.7,0.3-0.7,0.7c0,0.4,0.3,0.7,0.7,0.7h22.2v2.6H36.4V41z M40.5,36.4
		h69c2,0,3.6,1.4,4,3.2h-77C36.9,37.8,38.6,36.4,40.5,36.4z M91.3,111.1v2.5H58.7v-2.5c0-1.6,1.3-2.8,2.9-2.8h26.9
		C90,108.2,91.3,109.5,91.3,111.1z M86.7,106.8H63.3l2.9-11.3h17.6L86.7,106.8z M109.5,94.2h-69c-2.3,0-4.1-1.8-4.1-4.1v-5h12.3
		c0.4,0,0.7-0.3,0.7-0.7c0-0.4-0.3-0.7-0.7-0.7H36.4v-3.7h77.2V90C113.6,92.3,111.8,94.2,109.5,94.2z"/>
</g>
</svg>
