<?xml version="1.0" encoding="utf-8"?>
<!-- Generator: Adobe Illustrator 19.2.1, SVG Export Plug-In . SVG Version: 6.00 Build 0)  -->
<svg version="1.1" id="Layer_1" xmlns="http://www.w3.org/2000/svg" xmlns:xlink="http://www.w3.org/1999/xlink" x="0px" y="0px"
	 viewBox="0 0 150 150" style="enable-background:new 0 0 150 150;" xml:space="preserve">
<style type="text/css">
	.st0{fill:none;stroke:#666666;stroke-miterlimit:10;}
	.st1{opacity:0.95;fill:#666666;}
	.st2{fill:#999999;}
	.st3{opacity:0.1;}
	.st4{fill:#FFFFFF;}
</style>
<ellipse class="st0" cx="75" cy="75" rx="63.4" ry="64"/>
<g>
	<rect x="40.5" y="41.9" class="st1" width="69.2" height="68.7"/>
	<g>
		
			<image style="overflow:visible;opacity:0.4;" width="346" height="346" xlink:href="74031AD1.png"  transform="matrix(0.24 0 0 0.24 33.5239 34.8491)">
		</image>
		<g>
			<g>
				<path class="st2" d="M37.5,37.5v75h75v-75H37.5z M106.5,106.5H43.5v-63h62.9V106.5z"/>
			</g>
		</g>
	</g>
	<g>
		<g class="st3">
			<path d="M57.2,61.3c2-0.4,4.8-0.7,8.6-0.7c4.1,0,7.2,0.9,9.2,2.6c1.8,1.6,3,4,3,7c0,3-0.9,5.5-2.7,7.2c-2.3,2.3-5.8,3.4-9.8,3.4
				c-1.1,0-2,0-2.8-0.2v12h-5.6V61.3z M62.8,76.1c0.7,0.2,1.6,0.2,2.8,0.2c4.2,0,6.8-2.1,6.8-5.8c0-3.5-2.4-5.4-6.3-5.4
				c-1.6,0-2.7,0.1-3.3,0.3V76.1z"/>
		</g>
		<g>
			<path class="st4" d="M57.2,60c2-0.4,4.8-0.7,8.6-0.7c4.1,0,7.2,0.9,9.2,2.6c1.8,1.6,3,4,3,7c0,3-0.9,5.5-2.7,7.2
				c-2.3,2.3-5.8,3.4-9.8,3.4c-1.1,0-2,0-2.8-0.2v12h-5.6V60z M62.8,74.7c0.7,0.2,1.6,0.2,2.8,0.2c4.2,0,6.8-2.1,6.8-5.8
				c0-3.5-2.4-5.4-6.3-5.4c-1.6,0-2.7,0.1-3.3,0.3V74.7z"/>
		</g>
	</g>
	<g>
		<g class="st3">
			<path d="M79.8,87.3c1.3,0.8,3.7,1.7,5.8,1.7c2.5,0,3.6-1,3.6-2.5c0-1.5-0.9-2.4-3.7-3.3c-4.4-1.6-6.2-4-6.2-6.7
				c0-4,3.3-7.2,8.5-7.2c2.5,0,4.6,0.7,5.9,1.4l-1.1,4.1c-1-0.6-2.8-1.3-4.7-1.3c-2,0-3.1,1-3.1,2.4c0,1.5,1.1,2.2,3.9,3.2
				c4,1.5,5.9,3.6,6,7c0,4.1-3.2,7.2-9.1,7.2c-2.7,0-5.2-0.7-6.8-1.6L79.8,87.3z"/>
		</g>
		<g>
			<path class="st4" d="M79.8,86c1.3,0.8,3.7,1.7,5.8,1.7c2.5,0,3.6-1,3.6-2.5c0-1.5-0.9-2.4-3.7-3.3c-4.4-1.6-6.2-4-6.2-6.7
				c0-4,3.3-7.2,8.5-7.2c2.5,0,4.6,0.7,5.9,1.4l-1.1,4.1c-1-0.6-2.8-1.3-4.7-1.3c-2,0-3.1,1-3.1,2.4c0,1.5,1.1,2.2,3.9,3.2
				c4,1.5,5.9,3.6,6,7c0,4.1-3.2,7.2-9.1,7.2c-2.7,0-5.2-0.7-6.8-1.6L79.8,86z"/>
		</g>
	</g>
</g>
</svg>
