<?xml version="1.0" encoding="utf-8"?>
<!-- Generator: Adobe Illustrator 19.2.1, SVG Export Plug-In . SVG Version: 6.00 Build 0)  -->
<svg version="1.1" id="Layer_1" xmlns="http://www.w3.org/2000/svg" xmlns:xlink="http://www.w3.org/1999/xlink" x="0px" y="0px"
	 viewBox="0 0 150 150" style="enable-background:new 0 0 150 150;" xml:space="preserve">
<style type="text/css">
	.st0{fill:none;stroke:#666666;stroke-miterlimit:10;}
	.st1{fill:#FFFFFF;stroke:#666666;stroke-width:2;stroke-miterlimit:10;}
</style>
<ellipse class="st0" cx="75" cy="75" rx="63.4" ry="64"/>
<g>
	<path class="st1" d="M51,68.4c2.5,0,4.2,0.5,5,1.4c0.8,1,1,2.6,0.6,5C56.1,77.3,55.3,79,54,80c-1.3,1-3.3,1.6-5.9,1.6h-4l2.5-13.2
		H51z M35,95h6.6l1.6-8.4h5.6c2.5,0,4.5-0.3,6.1-0.8c1.6-0.5,3.1-1.5,4.4-2.7c1.1-1.1,2-2.2,2.7-3.5c0.7-1.3,1.2-2.7,1.5-4.2
		c0.7-3.7,0.2-6.7-1.6-8.8c-1.7-2.1-4.5-3.1-8.3-3.1H40.9L35,95z"/>
	<path class="st1" d="M68.2,55h6.5l-1.6,8.4H79c3.7,0,6.2,0.7,7.6,2c1.4,1.3,1.8,3.5,1.2,6.5l-2.7,14.7h-6.6l2.6-14
		c0.3-1.6,0.2-2.7-0.3-3.3c-0.5-0.6-1.6-0.9-3.3-0.9h-5.2l-3.4,18.1h-6.5L68.2,55z"/>
	<path class="st1" d="M102.3,68.4c2.5,0,4.2,0.5,5,1.4c0.8,1,1,2.6,0.6,5c-0.5,2.4-1.3,4.2-2.6,5.2c-1.3,1-3.3,1.6-5.9,1.6h-4
		l2.5-13.2H102.3z M86.3,95h6.6l1.6-8.4h5.6c2.5,0,4.5-0.3,6.1-0.8c1.6-0.5,3.1-1.5,4.4-2.7c1.1-1.1,2-2.2,2.7-3.5
		c0.7-1.3,1.2-2.7,1.5-4.2c0.7-3.7,0.2-6.7-1.6-8.8c-1.7-2.1-4.5-3.1-8.3-3.1H92.2L86.3,95z"/>
</g>
</svg>
