<?xml version="1.0" encoding="utf-8"?>
<!-- Generator: Adobe Illustrator 19.2.1, SVG Export Plug-In . SVG Version: 6.00 Build 0)  -->
<svg version="1.1" xmlns="http://www.w3.org/2000/svg" xmlns:xlink="http://www.w3.org/1999/xlink" x="0px" y="0px"
	 viewBox="0 0 900 900" style="enable-background:new 0 0 900 900;" xml:space="preserve">
<style type="text/css">
	.st0{clip-path:url(#SVGID_2_);}
	.st1{opacity:0.2;fill:#C0C0C0;}
	.st2{opacity:0.3;fill:#FFFFFF;}
	.st3{opacity:0.7;fill:url(#SVGID_3_);}
	.st4{opacity:0.8;fill:none;}
	.st5{fill:none;}
	.st6{opacity:0.5;fill:none;}
	.st7{opacity:0.5;fill:#C0C0C0;}
	.st8{opacity:0.4;fill:#C0C0C0;}
	.st9{opacity:0.3;fill:#C0C0C0;}
	.st10{opacity:0.2;fill:url(#SVGID_4_);}
	.st11{opacity:0.2;fill:url(#SVGID_5_);}
	.st12{opacity:0.2;fill:url(#SVGID_6_);}
	.st13{opacity:0.2;fill:url(#SVGID_7_);}
	.st14{fill:#FFFFFF;}
	.st15{opacity:0.2;fill:#FFFFFF;}
	.st16{opacity:0.2;fill:none;}
	.st17{opacity:0.2;clip-path:url(#SVGID_2_);fill:url(#SVGID_8_);}
</style>
<g id="Capa_7">
</g>
<g id="Capa_5">
	<g>
		<defs>
			<rect id="SVGID_1_" width="903.6" height="900"/>
		</defs>
		<clipPath id="SVGID_2_">
			<use xlink:href="#SVGID_1_"  style="overflow:visible;"/>
		</clipPath>
		<g class="st0">
			
				<image style="overflow:visible;" width="3766" height="3750" xlink:href="1B4D1F3B.png"  transform="matrix(0.24 0 0 0.24 0 1.123129e-005)">
			</image>
		</g>
		<g class="st0">
			<polygon class="st1" points="595.1,181.9 437.4,275.3 277.1,186.2 274.6,3.7 432.3,-89.7 592.5,-0.6 			"/>
			<polygon class="st2" points="616.8,364.4 459,457.8 298.8,368.7 296.3,186.2 454,92.8 614.2,181.9 			"/>
			<polygon class="st2" points="1095,380.2 937.3,473.6 777.1,384.5 774.6,202 932.3,108.6 1092.5,197.7 			"/>
			<linearGradient id="SVGID_3_" gradientUnits="userSpaceOnUse" x1="516.0519" y1="609.2594" x2="792.8297" y2="609.2594">
				<stop  offset="4.387240e-003" style="stop-color:#FFFFFF;stop-opacity:0.1"/>
				<stop  offset="1" style="stop-color:#FFFFFF"/>
			</linearGradient>
			<polygon class="st3" points="792.8,686.2 656.6,766.9 518.2,689.9 516.1,532.3 652.3,451.6 790.7,528.6 			"/>
			<polygon class="st2" points="826.8,644.6 669.1,738 508.9,648.9 506.4,466.4 664.1,373 824.3,462.1 			"/>
			<polygon class="st2" points="603.1,397.7 471.9,475.5 338.5,401.3 336.4,249.4 467.7,171.6 601,245.8 			"/>
			<polygon class="st2" points="991.2,317.2 860,395 726.6,320.8 724.5,168.9 855.8,91.2 989.1,165.3 			"/>
			<polygon class="st2" points="1110.8,560.9 979.5,638.6 846.2,564.5 844.1,412.6 975.3,334.8 1108.7,409 			"/>
			<polygon class="st2" points="802.2,181.9 711,236 618.4,184.5 616.9,78.9 708.1,24.9 800.8,76.4 			"/>
			<polygon class="st1" points="1063.9,599.2 906.2,692.6 745.9,603.5 743.4,421 901.1,327.6 1061.4,416.7 			"/>
			<polygon class="st4" points="707.2,432.8 621.1,483.9 530.8,430.6 526.7,326.3 612.8,275.3 703.1,328.5 			"/>
			<polygon class="st5" points="474.1,469.4 403.2,511.4 328.9,467.6 325.5,381.7 396.4,339.7 470.7,383.5 			"/>
			<polygon class="st5" points="943.2,77.8 872.3,119.8 797.9,76 794.5,-9.9 865.5,-51.9 939.8,-8 			"/>
			<polygon class="st5" points="831.6,490.2 727,543.3 621.3,490 621.4,365.5 726.9,307.8 831.6,365.7 			"/>
			<polygon class="st6" points="978.5,29.5 873.9,82.6 768.2,29.3 768.3,-95.2 873.8,-152.8 978.5,-95 			"/>
			<polygon class="st1" points="719.1,263.6 606.6,330.3 492.3,266.7 490.5,136.6 603,69.9 717.3,133.5 			"/>
			<polygon class="st7" points="720.1,531.3 682.7,553.5 644.6,532.3 644,489 681.5,466.8 719.5,487.9 			"/>
			<polygon class="st1" points="690.8,498.5 611.5,545.5 530.9,500.7 529.7,408.9 608.9,362 689.5,406.8 			"/>
			<polygon class="st5" points="506.4,271.6 377.5,337 247.3,271.4 247.5,118.1 377.4,47.1 506.4,118.4 			"/>
			<polygon class="st5" points="599.3,168.8 470.4,234.2 340.2,168.5 340.4,15.2 470.3,-55.8 599.3,15.5 			"/>
			<polygon class="st5" points="962.9,307.9 881.9,349.1 800,307.8 800.1,211.3 881.8,166.7 963,211.5 			"/>
			<polygon class="st8" points="790.1,287.9 710.9,334.8 630.3,290 629,198.3 708.3,151.3 788.9,196.1 			"/>
			<polygon class="st9" points="399.8,228.6 305.2,284.7 209.1,231.2 207.6,121.8 302.2,65.8 398.3,119.2 			"/>
			<linearGradient id="SVGID_4_" gradientUnits="userSpaceOnUse" x1="317.2678" y1="112.5783" x2="455.2971" y2="112.5783">
				<stop  offset="4.387240e-003" style="stop-color:#FFFFFF;stop-opacity:0.1"/>
				<stop  offset="0.1221" style="stop-color:#E8E8E8;stop-opacity:0.2064"/>
				<stop  offset="0.3695" style="stop-color:#ADADAD;stop-opacity:0.4301"/>
				<stop  offset="0.7226" style="stop-color:#4E4E4E;stop-opacity:0.7492"/>
				<stop  offset="1" style="stop-color:#000000"/>
			</linearGradient>
			<polygon class="st10" points="455.3,151 387.4,191.2 318.3,152.8 317.3,74.2 385.2,34 454.2,72.3 			"/>
			<linearGradient id="SVGID_5_" gradientUnits="userSpaceOnUse" x1="401.6898" y1="291.368" x2="539.7186" y2="291.368">
				<stop  offset="4.387240e-003" style="stop-color:#FFFFFF;stop-opacity:0.1"/>
				<stop  offset="0.1221" style="stop-color:#E8E8E8;stop-opacity:0.2064"/>
				<stop  offset="0.3695" style="stop-color:#ADADAD;stop-opacity:0.4301"/>
				<stop  offset="0.7226" style="stop-color:#4E4E4E;stop-opacity:0.7492"/>
				<stop  offset="1" style="stop-color:#000000"/>
			</linearGradient>
			<polygon class="st11" points="539.7,329.7 471.8,370 402.8,331.6 401.7,253 469.6,212.8 538.6,251.1 			"/>
			<linearGradient id="SVGID_6_" gradientUnits="userSpaceOnUse" x1="505.353" y1="450.3" x2="589.4281" y2="450.3">
				<stop  offset="4.387240e-003" style="stop-color:#FFFFFF;stop-opacity:0.1"/>
				<stop  offset="0.1221" style="stop-color:#E8E8E8;stop-opacity:0.2064"/>
				<stop  offset="0.3695" style="stop-color:#ADADAD;stop-opacity:0.4301"/>
				<stop  offset="0.7226" style="stop-color:#4E4E4E;stop-opacity:0.7492"/>
				<stop  offset="1" style="stop-color:#000000"/>
			</linearGradient>
			<polygon class="st12" points="589.4,473.7 548.1,498.2 506,474.8 505.4,426.9 546.7,402.4 588.8,425.8 			"/>
			<linearGradient id="SVGID_7_" gradientUnits="userSpaceOnUse" x1="784.7959" y1="354.5269" x2="868.871" y2="354.5269">
				<stop  offset="4.387240e-003" style="stop-color:#FFFFFF;stop-opacity:0.1"/>
				<stop  offset="0.1221" style="stop-color:#E8E8E8;stop-opacity:0.2064"/>
				<stop  offset="0.3695" style="stop-color:#ADADAD;stop-opacity:0.4301"/>
				<stop  offset="0.7226" style="stop-color:#4E4E4E;stop-opacity:0.7492"/>
				<stop  offset="1" style="stop-color:#000000"/>
			</linearGradient>
			<polygon class="st13" points="868.9,377.9 827.5,402.4 785.5,379 784.8,331.2 826.2,306.6 868.2,330 			"/>
			<polygon class="st1" points="615.7,314.9 573.9,339.7 531.5,316.1 530.9,267.8 572.6,243.1 615,266.6 			"/>
			<polygon class="st5" points="926.3,634 764,714.2 601.9,630.3 604.2,438.3 767.8,351.1 928.4,442.1 			"/>
			<polygon class="st1" points="850,635.8 808.2,660.5 765.8,637 765.2,588.7 806.9,563.9 849.3,587.5 			"/>
			<polygon class="st1" points="453.5,385.6 411.7,410.3 369.3,386.7 368.6,338.4 410.4,313.7 452.8,337.2 			"/>
			<polygon class="st1" points="766.9,25.1 725.2,49.8 682.8,26.2 682.1,-22.1 723.8,-46.8 766.2,-23.2 			"/>
			<polygon class="st1" points="968.7,150.5 889.4,197.4 808.8,152.7 807.6,60.9 886.8,13.9 967.4,58.7 			"/>
			<polygon class="st6" points="690.9,257.4 607.1,300 522.5,257.3 522.6,157.6 607,111.5 690.9,157.8 			"/>
			<polygon class="st6" points="272.9,225.6 194.6,265.3 115.5,225.5 115.6,132.3 194.6,89.2 272.9,132.5 			"/>
			<polygon class="st6" points="195.1,26 116.8,65.8 37.8,25.9 37.9,-67.2 116.8,-110.4 195.1,-67.1 			"/>
			<polygon class="st5" points="1021.9,306.2 943.6,345.9 864.5,306.1 864.6,212.9 943.5,169.8 1021.9,213.1 			"/>
			<polygon class="st6" points="989.1,769.1 870.9,829.1 751.6,768.9 751.8,628.4 870.9,563.3 989.1,628.6 			"/>
			<polygon class="st6" points="648.4,12 530.2,72 410.9,11.8 411.1,-128.7 530.2,-193.8 648.4,-128.5 			"/>
			<polygon class="st5" points="934.8,556.9 863.5,593.1 791.4,556.7 791.5,471.9 863.4,432.6 934.8,472 			"/>
			<polygon class="st5" points="864.5,782.1 793.2,818.3 721.1,781.9 721.2,697 793.1,657.7 864.5,697.2 			"/>
			<polygon class="st14" points="590.1,629 534.8,657 479,628.9 479,563.1 534.8,532.7 590.1,563.2 			"/>
			<polygon class="st15" points="223.3,967.2 125.8,1016.7 27.4,967 27.5,851.1 125.8,797.4 223.3,851.3 			"/>
			<polygon class="st16" points="229.6,554.2 121.6,607.6 13.7,551.7 15.3,423.9 124.2,365.9 231,426.5 			"/>
			<polygon class="st5" points="811.2,380.7 739.8,416.9 667.8,380.5 667.9,295.7 739.8,256.4 811.2,295.8 			"/>
			<polygon class="st5" points="288.1,163.9 216.8,200.1 144.7,163.8 144.8,78.9 216.8,39.6 288.2,79 			"/>
			<polygon class="st5" points="788.7,185.7 707.6,226.9 625.7,185.6 625.9,89.2 707.6,44.5 788.7,89.3 			"/>
		</g>
		<linearGradient id="SVGID_8_" gradientUnits="userSpaceOnUse" x1="139.4945" y1="983.8943" x2="755.1182" y2="-82.3972">
			<stop  offset="2.272730e-003" style="stop-color:#FFFFFF;stop-opacity:0"/>
			<stop  offset="9.007323e-002" style="stop-color:#EFEFEF;stop-opacity:9.778435e-002"/>
			<stop  offset="0.2625" style="stop-color:#C4C4C4;stop-opacity:0.2898"/>
			<stop  offset="0.5028" style="stop-color:#7F7F7F;stop-opacity:0.5574"/>
			<stop  offset="0.7989" style="stop-color:#222222;stop-opacity:0.8872"/>
			<stop  offset="0.9002" style="stop-color:#000000"/>
		</linearGradient>
		<rect x="-4.5" y="0.7" class="st17" width="903.6" height="900"/>
	</g>
</g>
</svg>
