<?xml version="1.0" encoding="utf-8"?>
<!-- Generator: Adobe Illustrator 19.2.1, SVG Export Plug-In . SVG Version: 6.00 Build 0)  -->
<svg version="1.1" id="Layer_1" xmlns="http://www.w3.org/2000/svg" xmlns:xlink="http://www.w3.org/1999/xlink" x="0px" y="0px"
	 viewBox="0 0 900 900" style="enable-background:new 0 0 900 900;" xml:space="preserve">
<style type="text/css">
	.st0{clip-path:url(#SVGID_2_);}
	.st1{clip-path:url(#SVGID_4_);}
	.st2{opacity:0.2;fill:#C0C0C0;enable-background:new    ;}
	.st3{opacity:0.3;fill:#FFFFFF;enable-background:new    ;}
	.st4{opacity:0.7;fill:url(#SVGID_5_);enable-background:new    ;}
	.st5{fill:none;}
	.st6{opacity:0.5;fill:#C0C0C0;enable-background:new    ;}
	.st7{opacity:0.4;fill:#C0C0C0;enable-background:new    ;}
	.st8{opacity:0.3;fill:#C0C0C0;enable-background:new    ;}
	.st9{opacity:0.2;fill:url(#SVGID_6_);enable-background:new    ;}
	.st10{opacity:0.2;fill:url(#SVGID_7_);enable-background:new    ;}
	.st11{opacity:0.2;fill:url(#SVGID_8_);enable-background:new    ;}
	.st12{opacity:0.2;fill:url(#SVGID_9_);enable-background:new    ;}
	.st13{fill:#FFFFFF;}
	.st14{opacity:0.2;fill:#FFFFFF;enable-background:new    ;}
	.st15{opacity:0.2;clip-path:url(#SVGID_11_);fill:url(#SVGID_12_);enable-background:new    ;}
</style>
<g id="Capa_7">
</g>
<g id="Capa_5">
	<g>
		<g>
			<defs>
				<rect id="SVGID_1_" width="903.6" height="900"/>
			</defs>
			<clipPath id="SVGID_2_">
				<use xlink:href="#SVGID_1_"  style="overflow:visible;"/>
			</clipPath>
			<g class="st0">
			</g>
		</g>
		<g>
			<defs>
				<rect id="SVGID_3_" width="903.6" height="900"/>
			</defs>
			<clipPath id="SVGID_4_">
				<use xlink:href="#SVGID_3_"  style="overflow:visible;"/>
			</clipPath>
			<g class="st1">
				<polygon class="st2" points="311.1,-0.6 471.3,-89.7 629,3.7 626.5,186.2 466.2,275.3 308.5,181.9 				"/>
				<polygon class="st3" points="289.4,181.9 449.6,92.8 607.3,186.2 604.8,368.7 444.6,457.8 286.8,364.4 				"/>
				<polygon class="st3" points="-188.9,197.7 -28.7,108.6 129,202 126.5,384.5 -33.7,473.6 -191.4,380.2 				"/>
				
					<linearGradient id="SVGID_5_" gradientUnits="userSpaceOnUse" x1="516.1" y1="292.75" x2="792.8" y2="292.75" gradientTransform="matrix(-1 0 0 -1 903.6 902)">
					<stop  offset="4.387240e-003" style="stop-color:#FFFFFF;stop-opacity:0.1"/>
					<stop  offset="1" style="stop-color:#FFFFFF"/>
				</linearGradient>
				<polygon class="st4" points="112.9,528.6 251.3,451.6 387.5,532.3 385.4,689.9 247,766.9 110.8,686.2 				"/>
				<polygon class="st3" points="79.3,462.1 239.5,373 397.2,466.4 394.7,648.9 234.5,738 76.8,644.6 				"/>
				<polygon class="st3" points="302.6,245.8 435.9,171.6 567.2,249.4 565.1,401.3 431.7,475.5 300.5,397.7 				"/>
				<polygon class="st3" points="-85.5,165.3 47.8,91.2 179.1,168.9 177,320.8 43.6,395 -87.6,317.2 				"/>
				<polygon class="st3" points="-205.1,409 -71.7,334.8 59.5,412.6 57.4,564.5 -75.9,638.6 -207.2,560.9 				"/>
				<polygon class="st3" points="102.8,76.4 195.5,24.9 286.7,78.9 285.2,184.5 192.6,236 101.4,181.9 				"/>
				<polygon class="st2" points="-157.8,416.7 2.5,327.6 160.2,421 157.7,603.5 -2.6,692.6 -160.3,599.2 				"/>
				<polygon class="st5" points="200.5,328.5 290.8,275.3 376.9,326.3 372.8,430.6 282.5,483.9 196.4,432.8 				"/>
				<polygon class="st5" points="432.9,383.5 507.2,339.7 578.1,381.7 574.7,467.6 500.4,511.4 429.5,469.4 				"/>
				<polygon class="st5" points="-36.2,-8 38.1,-51.9 109.1,-9.9 105.7,76 31.3,119.8 -39.6,77.8 				"/>
				<polygon class="st5" points="72,365.7 176.7,307.8 282.2,365.5 282.3,490 176.6,543.3 72,490.2 				"/>
				<polygon class="st5" points="-74.9,-95 29.8,-152.8 135.3,-95.2 135.4,29.3 29.7,82.6 -74.9,29.5 				"/>
				<polygon class="st2" points="186.3,133.5 300.6,69.9 413.1,136.6 411.3,266.7 297,330.3 184.5,263.6 				"/>
				<polygon class="st6" points="184.1,487.9 222.1,466.8 259.6,489 259,532.3 220.9,553.5 183.5,531.3 				"/>
				<polygon class="st2" points="214.1,406.8 294.7,362 373.9,408.9 372.7,500.7 292.1,545.5 212.8,498.5 				"/>
				<polygon class="st5" points="397.2,118.4 526.2,47.1 656.1,118.1 656.3,271.4 526.1,337 397.2,271.6 				"/>
				<polygon class="st5" points="304.3,15.5 433.3,-55.8 563.2,15.2 563.4,168.5 433.2,234.2 304.3,168.8 				"/>
				<polygon class="st5" points="-59.4,211.5 21.8,166.7 103.5,211.3 103.6,307.8 21.7,349.1 -59.3,307.9 				"/>
				<polygon class="st7" points="114.7,196.1 195.3,151.3 274.6,198.3 273.3,290 192.7,334.8 113.5,287.9 				"/>
				<polygon class="st8" points="505.3,119.2 601.4,65.8 696,121.8 694.5,231.2 598.4,284.7 503.8,228.6 				"/>
				
					<linearGradient id="SVGID_6_" gradientUnits="userSpaceOnUse" x1="317.3" y1="789.4" x2="455.3" y2="789.4" gradientTransform="matrix(-1 0 0 -1 903.6 902)">
					<stop  offset="4.387240e-003" style="stop-color:#FFFFFF;stop-opacity:0.1"/>
					<stop  offset="0.1221" style="stop-color:#E8E8E8;stop-opacity:0.2064"/>
					<stop  offset="0.3695" style="stop-color:#ADADAD;stop-opacity:0.4301"/>
					<stop  offset="0.7226" style="stop-color:#4E4E4E;stop-opacity:0.7492"/>
					<stop  offset="1" style="stop-color:#000000"/>
				</linearGradient>
				<polygon class="st9" points="449.4,72.3 518.4,34 586.3,74.2 585.3,152.8 516.2,191.2 448.3,151 				"/>
				
					<linearGradient id="SVGID_7_" gradientUnits="userSpaceOnUse" x1="401.7" y1="610.6" x2="539.7" y2="610.6" gradientTransform="matrix(-1 0 0 -1 903.6 902)">
					<stop  offset="4.387240e-003" style="stop-color:#FFFFFF;stop-opacity:0.1"/>
					<stop  offset="0.1221" style="stop-color:#E8E8E8;stop-opacity:0.2064"/>
					<stop  offset="0.3695" style="stop-color:#ADADAD;stop-opacity:0.4301"/>
					<stop  offset="0.7226" style="stop-color:#4E4E4E;stop-opacity:0.7492"/>
					<stop  offset="1" style="stop-color:#000000"/>
				</linearGradient>
				<polygon class="st10" points="365,251.1 434,212.8 501.9,253 500.8,331.6 431.8,370 363.9,329.7 				"/>
				
					<linearGradient id="SVGID_8_" gradientUnits="userSpaceOnUse" x1="505.4" y1="451.7" x2="589.4" y2="451.7" gradientTransform="matrix(-1 0 0 -1 903.6 902)">
					<stop  offset="4.387240e-003" style="stop-color:#FFFFFF;stop-opacity:0.1"/>
					<stop  offset="0.1221" style="stop-color:#E8E8E8;stop-opacity:0.2064"/>
					<stop  offset="0.3695" style="stop-color:#ADADAD;stop-opacity:0.4301"/>
					<stop  offset="0.7226" style="stop-color:#4E4E4E;stop-opacity:0.7492"/>
					<stop  offset="1" style="stop-color:#000000"/>
				</linearGradient>
				<polygon class="st11" points="314.8,425.8 356.9,402.4 398.2,426.9 397.6,474.8 355.5,498.2 314.2,473.7 				"/>
				
					<linearGradient id="SVGID_9_" gradientUnits="userSpaceOnUse" x1="784.8" y1="547.5" x2="868.9" y2="547.5" gradientTransform="matrix(-1 0 0 -1 903.6 902)">
					<stop  offset="4.387240e-003" style="stop-color:#FFFFFF;stop-opacity:0.1"/>
					<stop  offset="0.1221" style="stop-color:#E8E8E8;stop-opacity:0.2064"/>
					<stop  offset="0.3695" style="stop-color:#ADADAD;stop-opacity:0.4301"/>
					<stop  offset="0.7226" style="stop-color:#4E4E4E;stop-opacity:0.7492"/>
					<stop  offset="1" style="stop-color:#000000"/>
				</linearGradient>
				<polygon class="st12" points="35.4,330 77.4,306.6 118.8,331.2 118.1,379 76.1,402.4 34.7,377.9 				"/>
				<polygon class="st2" points="288.6,266.6 331,243.1 372.7,267.8 372.1,316.1 329.7,339.7 287.9,314.9 				"/>
				<polygon class="st5" points="-24.8,442.1 135.8,351.1 299.4,438.3 301.7,630.3 139.6,714.2 -22.7,634 				"/>
				<polygon class="st2" points="54.3,587.5 96.7,563.9 138.4,588.7 137.8,637 95.4,660.5 53.6,635.8 				"/>
				<polygon class="st2" points="450.8,337.2 493.2,313.7 535,338.4 534.3,386.7 491.9,410.3 450.1,385.6 				"/>
				<polygon class="st2" points="137.4,-23.2 179.8,-46.8 221.5,-22.1 220.8,26.2 178.4,49.8 136.7,25.1 				"/>
				<polygon class="st2" points="-63.8,58.7 16.8,13.9 96,60.9 94.8,152.7 14.2,197.4 -65.1,150.5 				"/>
				<polygon class="st5" points="212.7,157.8 296.6,111.5 381,157.6 381.1,257.3 296.5,300 212.7,257.4 				"/>
				<polygon class="st5" points="630.7,132.5 709,89.2 788,132.3 788.1,225.5 709,265.3 630.7,225.6 				"/>
				<polygon class="st5" points="708.5,-67.1 786.8,-110.4 865.7,-67.2 865.8,25.9 786.8,65.8 708.5,26 				"/>
				<polygon class="st5" points="-118.3,213.1 -39.9,169.8 39,212.9 39.1,306.1 -40,345.9 -118.3,306.2 				"/>
				<polygon class="st5" points="-85.5,628.6 32.7,563.3 151.8,628.4 152,768.9 32.7,829.1 -85.5,769.1 				"/>
				<polygon class="st5" points="255.2,-128.5 373.4,-193.8 492.5,-128.7 492.7,11.8 373.4,72 255.2,12 				"/>
				<polygon class="st5" points="-31.2,472 40.2,432.6 112.1,471.9 112.2,556.7 40.1,593.1 -31.2,556.9 				"/>
				<polygon class="st5" points="39.1,697.2 110.5,657.7 182.4,697 182.5,781.9 110.4,818.3 39.1,782.1 				"/>
				<polygon class="st13" points="313.5,563.2 368.8,532.7 424.6,563.1 424.6,628.9 368.8,657 313.5,629 				"/>
				<polygon class="st14" points="680.3,851.3 777.8,797.4 876.1,851.1 876.2,967 777.8,1016.7 680.3,967.2 				"/>
				<polygon class="st5" points="672.6,426.5 779.4,365.9 888.3,423.9 889.9,551.7 782,607.6 674,554.2 				"/>
				<polygon class="st5" points="92.4,295.8 163.8,256.4 235.7,295.7 235.8,380.5 163.8,416.9 92.4,380.7 				"/>
				<polygon class="st5" points="615.4,79 686.8,39.6 758.8,78.9 758.9,163.8 686.8,200.1 615.5,163.9 				"/>
				<polygon class="st5" points="114.9,89.3 196,44.5 277.7,89.2 277.9,185.6 196,226.9 114.9,185.7 				"/>
			</g>
		</g>
		<g>
			<defs>
				<rect id="SVGID_10_" width="903.6" height="900"/>
			</defs>
			<clipPath id="SVGID_11_">
				<use xlink:href="#SVGID_10_"  style="overflow:visible;"/>
			</clipPath>
			
				<linearGradient id="SVGID_12_" gradientUnits="userSpaceOnUse" x1="139.4943" y1="-81.8351" x2="755.1057" y2="984.4351" gradientTransform="matrix(-1 0 0 -1 903.6 902)">
				<stop  offset="2.272730e-003" style="stop-color:#FFFFFF;stop-opacity:0"/>
				<stop  offset="9.007322e-002" style="stop-color:#EFEFEF;stop-opacity:9.778435e-002"/>
				<stop  offset="0.2625" style="stop-color:#C4C4C4;stop-opacity:0.2898"/>
				<stop  offset="0.5028" style="stop-color:#7F7F7F;stop-opacity:0.5574"/>
				<stop  offset="0.7989" style="stop-color:#222222;stop-opacity:0.8872"/>
				<stop  offset="0.9002" style="stop-color:#000000"/>
			</linearGradient>
			<rect x="4.5" y="0.7" class="st15" width="903.6" height="900"/>
		</g>
	</g>
</g>
</svg>
