<?xml version="1.0" encoding="utf-8"?>
<!-- Generator: Adobe Illustrator 19.2.1, SVG Export Plug-In . SVG Version: 6.00 Build 0)  -->
<svg version="1.1" id="Layer_1" xmlns="http://www.w3.org/2000/svg" xmlns:xlink="http://www.w3.org/1999/xlink" x="0px" y="0px"
	 viewBox="0 0 150 150" style="enable-background:new 0 0 150 150;" xml:space="preserve">
<style type="text/css">
	.st0{fill:none;stroke:#666666;stroke-miterlimit:10;}
	.st1{fill:#666666;}
</style>
<ellipse class="st0" cx="75" cy="75" rx="63.4" ry="64"/>
<g>
	<path class="st1" d="M73.8,108c0.5-0.2,0.9-4.6,4.8-4.9c0,0,1.1-5.4,1.1-7.4c0-2.1-1.6-5.8-1.6-6c0-0.2-1.3-3.3,3.2-12.5
		c4.5-9.3,4.5-10.1,4.5-11.8c-1.2,2.7-4.3,4.8-4.3,4.8S93,53,90.7,48.8c-0.6,3.5-3.2,4.8-3.2,4.8c7-12.4,1.4-23.6,1.4-23.6
		s-17.4,5.1-18.3,23.2c-0.6-1.3-2.1-2.4-2.1-2.4s-6.8,8.8-7.5,34.2c0,0-0.7,15.5,7.3,24.7c0,0,1,1.8,1.4,1.9
		c0.4,0.2,1.3,2.2,1.3,2.2s-0.1,1,0.9,1.7l1.7,4.4c0,0,1.9,0.4,2.3,0c0.3-0.4-0.8-2.7-1.6-4.8c0-1.1-0.8-3.3-0.8-3.3
		S73.4,108.2,73.8,108z M71.2,105.3c-7.8-27.7,12.2-63,12.2-63C80.7,53.2,67.3,72.2,71.2,105.3z"/>
</g>
</svg>
