<?xml version="1.0" encoding="utf-8"?>
<!-- Generator: Adobe Illustrator 19.2.1, SVG Export Plug-In . SVG Version: 6.00 Build 0)  -->
<svg version="1.1" id="Layer_1" xmlns="http://www.w3.org/2000/svg" xmlns:xlink="http://www.w3.org/1999/xlink" x="0px" y="0px"
	 viewBox="0 0 150 150" style="enable-background:new 0 0 150 150;" xml:space="preserve">
<style type="text/css">
	.st0{fill:none;stroke:#666666;stroke-miterlimit:10;}
	.st1{fill:#666666;}
</style>
<ellipse class="st0" cx="75" cy="75" rx="63.4" ry="64"/>
<g>
	<path class="st1" d="M35,75c0-5.8,1.3-11.3,3.5-16.3L57.5,111C44.2,104.5,35,90.8,35,75L35,75z M75,115c-3.9,0-7.7-0.6-11.3-1.6
		l12-34.9L88,112.2c0.1,0.2,0.2,0.4,0.3,0.5C84.1,114.2,79.7,115,75,115L75,115z M107.3,74.2c2.3-5.7,3-10.3,3-14.3
		c0-1.5-0.1-2.8-0.3-4.1C113.2,61.5,115,68,115,75c0,14.8-8,27.6-19.9,34.6L107.3,74.2z M98.7,62c1.5,2.7,3.3,6.1,3.3,11
		c0,3.4-1,7.7-3,12.9l-4,13.3l-14.5-43c2.4-0.1,4.6-0.4,4.6-0.4c2.2-0.3,1.9-3.4-0.3-3.3c0,0-6.5,0.5-10.7,0.5
		c-3.9,0-10.5-0.5-10.5-0.5c-2.2-0.1-2.4,3.2-0.2,3.3c0,0,2,0.3,4.2,0.4l6.2,17.1l-8.8,26.2L50.5,56.3c2.4-0.1,4.6-0.4,4.6-0.4
		c2.2-0.3,1.9-3.4-0.3-3.3c0,0-6.5,0.5-10.7,0.5c-0.7,0-1.6,0-2.6,0C48.7,42.2,61,35,75,35c10.4,0,19.9,4,27,10.5
		c-0.2,0-0.3,0-0.5,0c-3.9,0-6.7,3.4-6.7,7.1C94.8,55.9,96.7,58.7,98.7,62L98.7,62z M98.7,62"/>
</g>
</svg>
